<svg width="80" height="80" viewBox="0 0 80 80" fill="none" xmlns="http://www.w3.org/2000/svg">
<path d="M54.4687 37.7719C53.5899 37.1035 53.419 35.8494 54.0869 34.9702L62.3041 24.1531C62.9722 23.2735 64.2269 23.1021 65.1065 23.7703L69.1772 26.8627C70.0566 27.5308 70.2281 28.7852 69.5603 29.6647L61.3438 40.4863C60.6754 41.3665 59.4198 41.5378 58.5401 40.8687L54.4687 37.7719ZM49.108 33.7398C49.9877 34.4074 51.2421 34.2356 51.91 33.356L60.8011 21.6449C61.4691 20.765 61.2972 19.5102 60.4172 18.8423L55.9858 15.4794C55.106 14.8118 53.8516 14.9836 53.1838 15.8632L44.2927 27.5743C43.6247 28.4542 43.7966 29.709 44.6766 30.3768L49.108 33.7398ZM45.9183 18.2628C46.7695 18.6693 47.7891 18.4257 48.3646 17.6783L51.2026 13.9932C51.8797 13.1141 51.7116 11.8518 50.8281 11.1804L46.8274 8.14063C45.9478 7.47231 44.6929 7.64366 44.0247 8.52334L40.5857 13.0509C39.8189 14.0603 40.1726 15.5192 41.3165 16.0654L45.9183 18.2628ZM41.3286 7.59025C41.9966 6.71067 41.8251 5.45618 40.9456 4.7881L36.2355 1.21003C35.3558 0.541787 34.1009 0.713309 33.4329 1.59311L29.0056 7.42335C28.2432 8.42744 28.5887 9.87797 29.7219 10.4305L35.142 13.0734C36 13.4918 37.0341 13.2455 37.6113 12.4853L41.3286 7.59025ZM61.5698 47.7807C61.7436 47.0034 61.4395 46.197 60.7957 45.728L37.322 28.6268C37.193 28.5327 37.0326 28.4921 36.8743 28.5134C36.4633 28.5687 36.2213 29.0039 36.3912 29.3822L45.9943 50.7555C46.3648 51.5801 45.8382 52.5291 44.9425 52.6511C44.3479 52.7321 43.7709 52.4118 43.5252 51.8643L34.4894 31.7344C34.2872 31.2839 33.9256 30.9242 33.4741 30.7244L28.4333 28.4939C27.7943 28.2111 27.3492 27.6152 27.2593 26.9222L27.2069 26.5185C27.0016 24.9354 28.6424 23.7616 30.0743 24.4672L32.9662 25.8923C33.2503 26.0322 33.5635 26.1027 33.88 26.098L39.3927 26.016C39.9898 26.0071 40.5517 25.7319 40.9247 25.2656L43.0987 22.5481C43.9022 21.5437 43.5624 20.053 42.4032 19.496L25.171 11.2159C24.2959 10.7954 23.2452 11.0641 22.6795 11.8531L10.8038 28.414C10.3199 29.0888 10.3033 29.9924 10.7621 30.6845L26.6842 54.7023C26.96 55.1183 27.0702 55.6223 26.9934 56.1155L23.6299 77.692C23.4409 78.9047 24.3787 80 25.6061 80H52.7738C53.8784 80 54.7738 79.1046 54.7738 78V60.3878C54.7738 59.9679 54.906 59.5585 55.1517 59.2179L60.5076 51.7918C60.6661 51.5721 60.7783 51.3225 60.8374 51.0581L61.5698 47.7807Z" fill="#42356B"/>
</svg>
