<svg width="80" height="80" viewBox="0 0 80 80" fill="none" xmlns="http://www.w3.org/2000/svg">
<path d="M14.7759 40.3113C15.5872 40.1926 16.3889 40.5811 16.7984 41.2915L23.4405 52.8156C23.8505 53.527 23.784 54.4169 23.2728 55.0595L15.8283 64.4165C14.9503 65.5201 13.2366 65.3928 12.5313 64.1716L1.47406 45.0268C0.767313 43.8031 1.51803 42.2523 2.91624 42.0476L14.7759 40.3113ZM62 63.9946C60.8954 63.9946 60 63.0991 60 61.9946V54.4558C60 53.6647 60.4763 52.9629 61.153 52.553C64.0496 50.7987 66 47.6483 66 43.9946C66 42.5646 65.6853 41.1976 65.1251 39.9824C64.6089 38.8628 64.8465 37.4304 65.9112 36.8088L71.76 33.3946C75.8 31.0346 77.2 25.8746 74.84 21.8346L69.32 12.2346C68.1945 10.2946 66.3479 8.87807 64.1826 8.29366C62.0173 7.70925 59.7087 8.00431 57.76 9.11456L25.24 27.9946C21.44 30.1146 20.12 34.9946 22.32 38.8346L28.32 49.2346C30.52 53.0346 35.44 54.3546 39.24 52.1546L44.8029 48.9589C45.8434 48.3611 47.1637 48.8236 47.8648 49.7975C48.6598 50.9018 49.6734 51.8426 50.844 52.5525C51.5218 52.9635 52 53.6661 52 54.4588V63.9946C52 68.3946 55.6 71.9946 60 71.9946H78C79.1046 71.9946 80 71.0991 80 69.9946V65.9946C80 64.89 79.1046 63.9946 78 63.9946H62Z" fill="#42356B"/>
</svg>
