<svg width="80" height="80" viewBox="0 0 80 80" fill="none" xmlns="http://www.w3.org/2000/svg">
<path d="M63.5001 72.0002L55.1643 63.7356C54.3823 62.9603 53.1206 62.963 52.3419 63.7417L47.831 68.2526C47.0499 69.0337 45.7836 69.0337 45.0025 68.2526L44.0834 67.3335C42.8056 66.0557 42.1667 64.4724 42.1667 62.5835C42.1667 60.6946 42.8056 59.1113 44.0834 57.8335L58.1667 43.7502C59.4445 42.4724 61.0279 41.8335 62.9167 41.8335C64.8056 41.8335 66.389 42.4724 67.6667 43.7502L68.5859 44.6693C69.3669 45.4503 69.3669 46.7167 68.5859 47.4977L64.0749 52.0087C63.2962 52.7874 63.2935 54.049 64.0688 54.831L72.3334 63.1668C73.0001 63.8335 73.3334 64.6113 73.3334 65.5002C73.3334 66.389 73.0001 67.1668 72.3334 67.8335L68.1667 72.0002C67.5001 72.6668 66.7223 73.0002 65.8334 73.0002C64.9445 73.0002 64.1667 72.6668 63.5001 72.0002ZM73.3334 18.8384C73.3334 19.3688 73.1227 19.8775 72.7476 20.2526L35.8774 57.1229C35.6761 57.3241 35.6945 57.6557 35.9167 57.8335C37.1945 59.1113 37.8334 60.6946 37.8334 62.5835C37.8334 64.4724 37.1945 66.0557 35.9167 67.3335L34.9976 68.2526C34.2166 69.0337 32.9502 69.0337 32.1692 68.2526L27.6582 63.7417C26.8796 62.963 25.6179 62.9603 24.8359 63.7356L16.5001 72.0002C15.8334 72.6668 15.0556 73.0002 14.1667 73.0002C13.2779 73.0002 12.5001 72.6668 11.8334 72.0002L7.66675 67.8335C7.00008 67.1668 6.66675 66.389 6.66675 65.5002C6.66675 64.6113 7.00008 63.8335 7.66675 63.1668L15.9313 54.831C16.7066 54.049 16.7039 52.7873 15.9253 52.0087L11.4143 47.4977C10.6332 46.7167 10.6332 45.4503 11.4143 44.6693L12.3334 43.7502C13.6112 42.4724 15.1945 41.8335 17.0834 41.8335C18.9723 41.8335 20.5556 42.4724 21.8334 43.7502C22.0112 43.9724 22.3428 43.9908 22.5441 43.7895L59.4143 6.91928C59.7894 6.54421 60.2981 6.3335 60.8285 6.3335H71.3334C72.438 6.3335 73.3334 7.22893 73.3334 8.3335V18.8384ZM24.581 34.7526C23.7999 35.5337 22.5336 35.5337 21.7525 34.7526L7.25253 20.2526C6.87746 19.8775 6.66675 19.3688 6.66675 18.8384V8.33349C6.66675 7.22892 7.56218 6.3335 8.66675 6.3335H19.1717C19.7021 6.3335 20.2108 6.54421 20.5859 6.91928L35.0859 21.4193C35.8669 22.2003 35.8669 23.4667 35.0859 24.2477L24.581 34.7526Z" fill="#42356B"/>
</svg>
