<svg width="38" height="38" viewBox="0 0 38 38" fill="none" xmlns="http://www.w3.org/2000/svg">
<path d="M18.9998 37.3333C16.4637 37.3333 14.0804 36.8521 11.8498 35.8896C9.61928 34.9271 7.679 33.6208 6.029 31.9708C4.379 30.3208 3.07275 28.3805 2.11025 26.15C1.14775 23.9194 0.666504 21.5361 0.666504 19C0.666504 16.4639 1.14775 14.0805 2.11025 11.85C3.07275 9.61943 4.379 7.67916 6.029 6.02916C7.679 4.37916 9.61928 3.07291 11.8498 2.11041C14.0804 1.14791 16.4637 0.666656 18.9998 0.666656C21.5359 0.666656 23.9193 1.14791 26.1498 2.11041C28.3804 3.07291 30.3207 4.37916 31.9707 6.02916C33.6207 7.67916 34.9269 9.61943 35.8894 11.85C36.8519 14.0805 37.3332 16.4639 37.3332 19C37.3332 21.5361 36.8519 23.9194 35.8894 26.15C34.9269 28.3805 33.6207 30.3208 31.9707 31.9708C30.3207 33.6208 28.3804 34.9271 26.1498 35.8896C23.9193 36.8521 21.5359 37.3333 18.9998 37.3333ZM17.1665 33.575V30C16.1582 30 15.295 29.641 14.5769 28.9229C13.8589 28.2049 13.4998 27.3417 13.4998 26.3333V24.5L4.69984 15.7C4.60817 16.25 4.52414 16.8 4.44775 17.35C4.37137 17.9 4.33317 18.45 4.33317 19C4.33317 22.6972 5.54775 25.9361 7.97692 28.7167C10.4061 31.4972 13.4693 33.1167 17.1665 33.575ZM29.8165 28.9C30.4276 28.2278 30.9776 27.5021 31.4665 26.7229C31.9554 25.9437 32.3603 25.134 32.6811 24.2937C33.0019 23.4535 33.2464 22.5903 33.4144 21.7042C33.5825 20.818 33.6665 19.9167 33.6665 19C33.6665 16.0055 32.8339 13.2708 31.1686 10.7958C29.5033 8.32082 27.2804 6.53332 24.4998 5.43332V6.16666C24.4998 7.17499 24.1408 8.03818 23.4228 8.75624C22.7047 9.4743 21.8415 9.83332 20.8332 9.83332H17.1665V13.5C17.1665 14.0194 16.9908 14.4549 16.6394 14.8062C16.288 15.1576 15.8526 15.3333 15.3332 15.3333H11.6665V19H22.6665C23.1859 19 23.6214 19.1757 23.9728 19.5271C24.3241 19.8785 24.4998 20.3139 24.4998 20.8333V26.3333H26.3332C27.1276 26.3333 27.8457 26.5701 28.4873 27.0437C29.129 27.5174 29.5721 28.1361 29.8165 28.9Z" fill="#FF6F0F"/>
</svg>
