<svg width="42" height="38" viewBox="0 0 42 38" fill="none" xmlns="http://www.w3.org/2000/svg">
<path d="M20.7708 33.6667C20.893 33.6667 21.0152 33.6361 21.1374 33.575C21.2597 33.5139 21.3513 33.4528 21.4124 33.3917L36.4458 18.3583C36.8124 17.9917 37.0798 17.5792 37.2479 17.1208C37.4159 16.6625 37.4999 16.2042 37.4999 15.7458C37.4999 15.2569 37.4159 14.791 37.2479 14.3479C37.0798 13.9049 36.8124 13.5153 36.4458 13.1792L28.6541 5.38749C28.318 5.02082 27.9284 4.75346 27.4854 4.58541C27.0423 4.41735 26.5763 4.33332 26.0874 4.33332C25.6291 4.33332 25.1708 4.41735 24.7124 4.58541C24.2541 4.75346 23.8416 5.02082 23.4749 5.38749L22.9708 5.89166L26.3624 9.32916C26.8208 9.75693 27.1569 10.2458 27.3708 10.7958C27.5847 11.3458 27.6916 11.9264 27.6916 12.5375C27.6916 13.8208 27.2562 14.8979 26.3854 15.7687C25.5145 16.6396 24.4374 17.075 23.1541 17.075C22.543 17.075 21.9548 16.968 21.3895 16.7542C20.8242 16.5403 20.3277 16.2194 19.8999 15.7917L16.4624 12.4L8.44161 20.4208C8.34994 20.5125 8.28119 20.6118 8.23536 20.7187C8.18952 20.8257 8.16661 20.9403 8.16661 21.0625C8.16661 21.3069 8.25827 21.5285 8.44161 21.7271C8.62494 21.9257 8.83883 22.025 9.08327 22.025C9.2055 22.025 9.32772 21.9944 9.44994 21.9333C9.57216 21.8722 9.66383 21.8111 9.72494 21.75L15.9583 15.5167L18.5249 18.0833L12.3374 24.3167C12.2458 24.4083 12.177 24.5076 12.1312 24.6146C12.0854 24.7215 12.0624 24.8361 12.0624 24.9583C12.0624 25.2028 12.1541 25.4167 12.3374 25.6C12.5208 25.7833 12.7347 25.875 12.9791 25.875C13.1013 25.875 13.2236 25.8444 13.3458 25.7833C13.468 25.7222 13.5597 25.6611 13.6208 25.6L19.8541 19.4125L22.4208 21.9792L16.2333 28.2125C16.1416 28.2736 16.0729 28.3653 16.027 28.4875C15.9812 28.6097 15.9583 28.7319 15.9583 28.8542C15.9583 29.0986 16.0499 29.3125 16.2333 29.4958C16.4166 29.6792 16.6305 29.7708 16.8749 29.7708C16.9972 29.7708 17.1117 29.7479 17.2187 29.7021C17.3256 29.6562 17.4249 29.5875 17.5166 29.4958L23.7499 23.3083L26.3166 25.875L20.0833 32.1083C19.9916 32.2 19.9229 32.2993 19.877 32.4062C19.8312 32.5132 19.8083 32.6278 19.8083 32.75C19.8083 32.9944 19.9076 33.2083 20.1062 33.3917C20.3048 33.575 20.5263 33.6667 20.7708 33.6667ZM20.7249 37.3333C19.5944 37.3333 18.5937 36.959 17.7229 36.2104C16.852 35.4618 16.3402 34.5222 16.1874 33.3917C15.1486 33.2389 14.2777 32.8111 13.5749 32.1083C12.8722 31.4055 12.4444 30.5347 12.2916 29.4958C11.2527 29.343 10.3895 28.9076 9.70202 28.1896C9.01452 27.4715 8.59439 26.6083 8.44161 25.6C7.2805 25.4472 6.33327 24.943 5.59994 24.0875C4.86661 23.2319 4.49994 22.2236 4.49994 21.0625C4.49994 20.4514 4.61452 19.8632 4.84369 19.2979C5.07286 18.7326 5.40133 18.2361 5.82911 17.8083L16.4624 7.22082L22.4666 13.225C22.5277 13.3167 22.6194 13.3854 22.7416 13.4312C22.8638 13.4771 22.9861 13.5 23.1083 13.5C23.3833 13.5 23.6124 13.416 23.7958 13.2479C23.9791 13.0799 24.0708 12.8583 24.0708 12.5833C24.0708 12.4611 24.0479 12.3389 24.002 12.2167C23.9562 12.0944 23.8874 12.0028 23.7958 11.9417L17.2416 5.38749C16.9055 5.02082 16.5159 4.75346 16.0729 4.58541C15.6298 4.41735 15.1638 4.33332 14.6749 4.33332C14.2166 4.33332 13.7583 4.41735 13.2999 4.58541C12.8416 4.75346 12.4291 5.02082 12.0624 5.38749L5.59994 11.8958C5.32494 12.1708 5.09577 12.4917 4.91244 12.8583C4.72911 13.225 4.60689 13.5917 4.54577 13.9583C4.48466 14.325 4.48466 14.6993 4.54577 15.0812C4.60689 15.4632 4.72911 15.8222 4.91244 16.1583L2.25411 18.8167C1.73466 18.1139 1.35272 17.3424 1.10827 16.5021C0.86383 15.6618 0.772164 14.8139 0.833275 13.9583C0.894386 13.1028 1.10827 12.2701 1.47494 11.4604C1.84161 10.6507 2.34577 9.92499 2.98744 9.28332L9.44994 2.82082C10.1833 2.11805 11.0006 1.58332 11.902 1.21666C12.8034 0.84999 13.7277 0.666656 14.6749 0.666656C15.6222 0.666656 16.5465 0.84999 17.4479 1.21666C18.3492 1.58332 19.1513 2.11805 19.8541 2.82082L20.3583 3.32499L20.8624 2.82082C21.5958 2.11805 22.4131 1.58332 23.3145 1.21666C24.2159 0.84999 25.1402 0.666656 26.0874 0.666656C27.0347 0.666656 27.959 0.84999 28.8604 1.21666C29.7617 1.58332 30.5638 2.11805 31.2666 2.82082L39.0124 10.5667C39.7152 11.2694 40.2499 12.0792 40.6166 12.9958C40.9833 13.9125 41.1666 14.8444 41.1666 15.7917C41.1666 16.7389 40.9833 17.6632 40.6166 18.5646C40.2499 19.466 39.7152 20.268 39.0124 20.9708L23.9791 35.9583C23.5513 36.3861 23.0548 36.7222 22.4895 36.9667C21.9242 37.2111 21.3361 37.3333 20.7249 37.3333Z" fill="#FF6F0F"/>
</svg>
