<svg width="53" height="74" viewBox="0 0 53 74" fill="none" xmlns="http://www.w3.org/2000/svg">
<path d="M3.72609 18.8454H11.8423V14.2127C11.8423 10.3033 13.4406 6.74965 16.0166 4.17496C18.5912 1.60028 22.1449 0.000671387 26.0543 0.000671387C29.9638 0.000671387 33.5174 1.59898 36.0934 4.17496C38.6681 6.74965 40.2677 10.3033 40.2677 14.2127V18.8454H49.5265C50.3652 36.924 51.2027 55.004 52.0375 73.0826H0.0737305L2.58481 18.8454H3.72739H3.72609ZM2.95613 62.5307H49.1525L47.2413 21.2448H40.2664V28.4248H32.3177V26.0241H37.8657V21.2448H14.2404V26.0241H19.7897V28.4248H11.841V21.2448H4.86734L2.95613 62.5307ZM49.2642 64.9314H2.84579L2.57961 70.6832H49.5316L49.2655 64.9314H49.2642ZM14.2417 18.8454H37.867V14.2127C37.867 10.9655 36.5375 8.01298 34.3964 5.87065C32.2554 3.72962 29.3016 2.40008 26.0543 2.40008C22.8071 2.40008 19.8533 3.72962 17.7122 5.87065C15.5712 8.01168 14.2417 10.9655 14.2417 14.2127V18.8454Z" fill="black"/>
</svg>
