<svg width="74" height="74" viewBox="0 0 74 74" fill="none" xmlns="http://www.w3.org/2000/svg">
<path d="M12.6413 35.3419H19.8317L27.6441 9.83393H29.9318L44.9346 58.8218L52.125 35.3419H61.0813V37.7426H53.8908L46.0798 63.2506H43.792L28.7892 14.2627L21.5988 37.7426H12.6439V35.3419H12.6413ZM36.86 0C46.9497 0 56.0864 4.0899 62.6991 10.7025C69.3117 17.3152 73.4016 26.4506 73.4016 36.5416C73.4016 46.6313 69.3117 55.768 62.6991 62.3807C56.0864 68.9933 46.951 73.0832 36.86 73.0832C26.7703 73.0832 17.6349 68.9933 11.0209 62.3807C4.40826 55.768 0.318359 46.6326 0.318359 36.5416C0.318359 26.4519 4.40826 17.3165 11.0209 10.7025C17.6336 4.0899 26.769 0 36.86 0ZM61.0021 12.3995C54.8244 6.22184 46.2888 2.39941 36.86 2.39941C27.4324 2.39941 18.8969 6.22054 12.7179 12.3995C6.54021 18.5772 2.71777 27.1128 2.71777 36.5416C2.71777 45.9692 6.53891 54.5047 12.7179 60.6837C18.8956 66.8614 27.4311 70.6838 36.86 70.6838C46.2875 70.6838 54.8231 66.8627 61.0021 60.6837C67.1798 54.506 71.0022 45.9705 71.0022 36.5416C71.0022 27.1141 67.1811 18.5785 61.0021 12.3995ZM52.2042 25.7118H47.2509V30.6651H44.8502V25.7118H39.8969V23.3111H44.8502V18.3578H47.2509V23.3111H52.2042V25.7118Z" fill="black"/>
</svg>
