<svg width="68" height="74" viewBox="0 0 68 74" fill="none" xmlns="http://www.w3.org/2000/svg">
<path d="M2.43783 70.6799H64.9769V62.7442H61.2571H60.0288H5.75908H2.43783V70.6799ZM44.8936 33.2204H52.2411V60.3448H58.7992L57.7449 21.7453H9.27249L8.21821 60.3448H20.9242V35.6198H15.976V33.2191H23.3236V60.3435H35.3829V35.6185H30.4348V33.2178H37.7823V60.3422H49.8417V35.6172H44.8936V33.2165V33.2204ZM13.2572 26.2831H53.7576V28.6838H13.2572V26.2831ZM9.01671 19.3459H57.9981L60.9338 8.74589H6.08108L9.01671 19.3459ZM6.90814 20.6962L3.59857 8.74719H0.0371094V0H67.3763V8.74719H66.1766H63.4176L60.108 20.6962L61.1921 60.3474H67.3776V73.0832H66.1779H0.0397087V60.3474H5.8266C6.18885 47.1312 6.54979 33.9137 6.91074 20.6975L6.90814 20.6962ZM2.43783 6.34648H2.9338H64.081H64.9756V2.39941H2.43653V6.34648H2.43783Z" fill="black"/>
</svg>
