<svg width="98" height="74" viewBox="0 0 98 74" fill="none" xmlns="http://www.w3.org/2000/svg">
<path d="M19.6038 0.00129838H78.4529C83.7412 0.00129838 88.5413 2.15791 92.0184 5.63497C95.4967 9.11333 97.652 13.9134 97.652 19.2004V59.8839C97.652 63.5194 96.1693 66.8185 93.779 69.2102C91.3874 71.6018 88.0882 73.0832 84.4527 73.0832H82.8258C79.589 73.0832 76.6092 71.9355 74.2994 69.9879C71.9934 68.0429 70.3614 65.2994 69.8161 62.1067L67.5737 48.9853C67.3751 47.8193 66.7817 46.8196 65.9443 46.1133C65.1094 45.4096 64.0253 44.9941 62.8412 44.9941H35.2155C34.0314 44.9941 32.9472 45.4096 32.1124 46.1133C31.2749 46.8196 30.6816 47.8194 30.4816 48.984L28.2393 62.1054C27.694 65.2994 26.0619 68.0416 23.756 69.9866C21.4475 71.9342 18.4677 73.0819 15.2296 73.0819H13.6027C9.96721 73.0819 6.66672 71.5992 4.2764 69.2089C1.88608 66.8186 0.40332 63.5181 0.40332 59.8826V19.1992C0.40332 13.9108 2.55995 9.11073 6.03701 5.63367C9.51407 2.15661 14.3155 0 19.6025 0L19.6038 0.00129838ZM69.1526 19.0511H85.6524V21.4518H69.1526V19.0511ZM28.9041 21.4518H21.8539V28.502H19.4532V21.4518H12.403V19.0511H19.4532V12.0009H21.8539V19.0511H28.9041V21.4518ZM78.4529 2.402H19.6038C14.9777 2.402 10.7787 4.28855 7.734 7.33195C4.6906 10.3754 2.80402 14.5756 2.80402 19.2017V59.8852C2.80402 62.8585 4.01803 65.5591 5.97339 67.5158C7.93005 69.4724 10.6294 70.6851 13.604 70.6851H15.2309C17.8899 70.6851 20.3283 69.749 22.2109 68.1611C24.0962 66.5706 25.4309 64.3244 25.8789 61.7042L28.1211 48.5828C28.4185 46.843 29.3092 45.3485 30.5673 44.2865C31.828 43.2218 33.4536 42.5947 35.2168 42.5947H62.8425C64.6057 42.5947 66.2312 43.2218 67.492 44.2865C68.7501 45.3472 69.6408 46.843 69.9368 48.5828L72.1791 61.7042C72.627 64.3231 73.9618 66.5706 75.847 68.1611C77.7297 69.749 80.168 70.6851 82.8271 70.6851H84.454C87.426 70.6851 90.1266 69.4711 92.0833 67.5145C94.0399 65.5578 95.2539 62.8572 95.2539 59.8852V19.2017C95.2539 14.5769 93.3674 10.3767 90.3227 7.33325C87.2793 4.28985 83.079 2.402 78.4542 2.402H78.4529Z" fill="black"/>
</svg>
