<svg width="121" height="73" viewBox="0 0 121 73" fill="none" xmlns="http://www.w3.org/2000/svg">
<path fill-rule="evenodd" clip-rule="evenodd" d="M80.7691 53.2667V60.9206H112.943V53.2667H80.7691ZM21.5578 43.2133H12.099C9.00371 43.2133 6.18886 41.9474 4.1504 39.9076C2.11194 37.8692 0.844727 35.0543 0.844727 31.959C0.844727 28.8636 2.11061 26.0487 4.14907 24.0103C6.18882 21.9718 9.00244 20.7059 12.0978 20.7059H21.5578C21.1994 20.4255 20.8593 20.1229 20.5373 19.8009C18.4988 17.7625 17.2316 14.9476 17.2316 11.8522C17.2316 8.75691 18.4975 5.94202 20.5359 3.90356C22.5757 1.8651 25.3893 0.599182 28.4846 0.599182H62.1153H115.341H120.155V2.99989H115.341V20.7072H120.155V23.1079H115.341H103.767H98.9529V40.8152H103.767H115.341H120.155V43.2159H115.341V60.9232H120.155V63.3239H115.341H80.7665V72.484L73.9448 67.0685L67.1231 72.484V63.3239H62.114H28.4833C25.388 63.3239 22.5731 62.058 20.5347 60.0183C18.4962 57.9798 17.229 55.1649 17.229 52.0696C17.229 48.9742 18.4949 46.1594 20.5333 44.1209C20.8553 43.7989 21.1955 43.4977 21.5539 43.2159L21.5578 43.2133ZM28.4872 23.1053H12.099C9.66588 23.1053 7.45216 24.1025 5.84736 25.7073C4.24256 27.3121 3.2454 29.5258 3.2454 31.959C3.2454 34.3921 4.24256 36.6059 5.84736 38.2107C7.45216 39.8155 9.66588 40.8126 12.099 40.8126H28.4872H38.8016L38.7925 40.8048L38.6873 40.7204L38.5821 40.6347L38.4782 40.5478L38.3757 40.4595L38.2744 40.3699L38.1744 40.279L38.0745 40.1881L37.9758 40.0959L37.8784 40.0024L37.7823 39.9076L37.6875 39.8116L37.594 39.7142L37.5019 39.6155L37.4097 39.5155L37.3188 39.4156L37.2292 39.3143L37.1409 39.2117L37.0539 39.1078L36.9682 39.0027L36.8839 38.8975L36.8007 38.791L36.719 38.6833L36.6384 38.5742L36.5593 38.4639L36.4813 38.3535L36.4048 38.2418L36.3294 38.1289L36.2555 38.0146L36.1827 37.9004L36.1113 37.7848L36.0412 37.6679L35.9724 37.5511L35.9049 37.4329L35.8387 37.3135L35.7738 37.194L35.7101 37.0733L35.6491 36.9512L35.5893 36.8292L35.5309 36.7058L35.4738 36.5812L35.418 36.4566L35.3635 36.3306L35.3102 36.2047L35.2583 36.0774L35.209 35.9489L35.1609 35.8203L35.1142 35.6905L35.0687 35.5607L35.0246 35.4295L34.983 35.2984L34.9427 35.166L34.9038 35.0335L34.8662 34.8998L34.8298 34.7661L34.796 34.631L34.7636 34.496L34.7325 34.3597L34.7039 34.2233L34.6766 34.0857L34.6506 33.9481L34.6259 33.8092L34.6039 33.6702L34.5831 33.53L34.5636 33.3898L34.5468 33.2496L34.5312 33.108L34.5182 32.9665L34.5065 32.825L34.4961 32.6822L34.4883 32.5393L34.4818 32.3952L34.4767 32.2511L34.474 32.107L34.4728 31.9616C34.4728 28.8662 35.7387 26.0513 37.7771 24.0129C38.0991 23.6909 38.4393 23.3897 38.7976 23.1079H28.4833L28.4872 23.1053ZM56.8309 59.1548C56.9165 59.2185 57.0022 59.2808 57.0905 59.3418L57.1788 59.4015L57.2671 59.4613C57.3268 59.5002 57.3866 59.5392 57.4463 59.5768C57.5073 59.6145 57.567 59.6521 57.6293 59.6885C57.6904 59.7248 57.7527 59.7599 57.815 59.7949L57.9086 59.8469C57.9709 59.8806 58.0345 59.9144 58.0981 59.9469L58.1942 59.9949L58.2903 60.0416L58.3876 60.0884L58.485 60.1338L58.5837 60.178L58.6824 60.2208L58.7824 60.2624L58.8823 60.3026L58.9836 60.3416L59.0848 60.3792L59.1861 60.4156L59.2887 60.4506L59.3913 60.4857L59.4951 60.5181L59.599 60.5506L59.7029 60.5818L59.8081 60.6116L59.9132 60.6402L60.0197 60.6675L60.1261 60.6934L60.2326 60.7181L60.3404 60.7415L60.4481 60.7635L60.5572 60.7843L60.6663 60.8038L60.7753 60.8207L60.8844 60.8375L60.9948 60.8518L61.1051 60.8648L61.2155 60.8765L61.3271 60.8869L61.4388 60.896L61.5505 60.9038L61.6635 60.9103L61.7764 60.9154L61.8893 60.9193L62.0023 60.9219L62.1166 60.9232H67.1257V53.2693H62.1166V50.8686H112.942V43.2146H103.767H98.9529H62.1153C59.6821 43.2146 57.4684 44.2118 55.8636 45.8166C54.2588 47.4214 53.2616 49.6351 53.2616 52.0683L53.2629 52.1825L53.2655 52.2955L53.2694 52.4085L53.2746 52.5214L53.2811 52.6344L53.2889 52.746L53.298 52.8577L53.3084 52.9694L53.32 53.0797L53.333 53.1901L53.3473 53.3004L53.3642 53.4108L53.3811 53.5199L53.4005 53.6289L53.4213 53.738L53.4434 53.8458L53.4667 53.9535L53.4915 54.06L53.5174 54.1665L53.5446 54.2729L53.5732 54.3781L53.6031 54.4833L53.6342 54.5884L53.6667 54.6923L53.6991 54.7962L53.7342 54.8988L53.7693 55.0013L53.8057 55.1026L53.8433 55.2039L53.8822 55.3051L53.9225 55.4051L53.964 55.5051L54.0069 55.6038L54.051 55.7024L54.0965 55.7998L54.1432 55.8972L54.19 55.9933L54.238 56.0894L54.2873 56.1841L54.338 56.2789L54.3899 56.3724L54.4431 56.4659L54.4977 56.5581L54.5522 56.6503L54.608 56.7412L54.6652 56.8307L54.7236 56.9203L54.7833 57.0086L54.8444 57.0969L54.9053 57.1839L56.8322 59.1561L56.8309 59.1548ZM45.731 43.2133H28.4885C26.0553 43.2133 23.8416 44.2105 22.2368 45.8153C20.632 47.4201 19.6349 49.6338 19.6349 52.067C19.6349 54.5001 20.632 56.7139 22.2368 58.3187C23.8416 59.9235 26.0553 60.9206 28.4885 60.9206H55.191L55.1742 60.9077L55.1572 60.8947L55.1404 60.8817L55.1235 60.8687L55.1066 60.8557L55.0897 60.8427L55.0742 60.8311L55.0728 60.8298L55.056 60.8168L55.0391 60.8038L55.0223 60.7908L55.0053 60.7778L54.9885 60.7648L54.9716 60.7519L54.9677 60.748L54.956 60.7376L54.9391 60.7246L54.9223 60.7103L54.9053 60.6973L54.8885 60.683L54.8716 60.6688L54.8612 60.661L54.8548 60.6558L54.8392 60.6415L54.8223 60.6272L54.8067 60.6129L54.7911 60.5986L54.7755 60.5844L54.7456 60.5584L54.743 60.5558L54.7275 60.5415L54.7119 60.5272L54.6963 60.5129L54.6807 60.4987L54.6652 60.4844L54.6496 60.4701L54.634 60.4558L54.6184 60.4415L54.6028 60.4273L54.5873 60.413L54.5717 60.3987L54.5613 60.3896L54.5561 60.3844L54.5405 60.3701L54.525 60.3558L54.5094 60.3416L54.4938 60.3273L54.4782 60.313L54.4626 60.2987L54.447 60.2844L54.4314 60.2701L54.4159 60.2559L54.3847 60.226L54.3691 60.2117L54.3639 60.2078L54.3535 60.1974L54.338 60.1832L54.3068 60.1533L54.2912 60.139L54.2757 60.1247L54.2653 60.1143L54.2601 60.1092L54.2445 60.0936L54.2289 60.0793L54.2133 60.0637L54.1978 60.0481L54.1822 60.0326L54.1666 60.0183L54.0718 59.9222L53.9783 59.8248L53.8862 59.7261L53.7939 59.6262L53.7031 59.5262C53.6434 59.4587 53.5836 59.3911 53.5265 59.3223C53.4681 59.2535 53.4109 59.1834 53.3538 59.1133L53.2694 59.0081L53.1863 58.9017L53.1045 58.7939C53.0227 58.6848 52.9435 58.5758 52.8669 58.4641L52.7903 58.3524L52.715 58.2395L52.641 58.1252C52.5916 58.0486 52.5436 57.972 52.4969 57.8954L52.4268 57.7786L52.358 57.6617L52.2905 57.5436L52.2242 57.4241L52.1593 57.3046L52.097 57.1839L52.036 57.0619L51.9762 56.9398L51.9178 56.8165L51.8607 56.6918L51.8048 56.5672L51.7503 56.4412L51.6971 56.3153L51.6465 56.188L51.5971 56.0595C51.5646 55.9738 51.5322 55.8881 51.5023 55.8011L51.4568 55.6713L51.4127 55.5402L51.3712 55.409L51.3309 55.2766L51.2919 55.1441L51.2543 55.0104L51.2193 54.8767L51.1855 54.7416L51.153 54.6066L51.1219 54.4703L51.0933 54.334L51.0661 54.1963L51.0401 54.0587L51.0154 53.9198L50.9933 53.7808L50.9725 53.6406L50.9531 53.5004L50.9362 53.3602L50.9206 53.2186L50.9076 53.0771L50.896 52.9356L50.8856 52.7928L50.8778 52.65L50.8713 52.5058L50.8661 52.3617L50.8635 52.2176L50.8622 52.0722C50.8622 48.9768 52.1281 46.1619 54.1666 44.1235C54.4886 43.8015 54.8287 43.5003 55.1871 43.2185H45.7271L45.731 43.2133ZM55.191 2.99859H28.4885C26.0553 2.99859 23.8416 3.99575 22.2368 5.60054C20.632 7.20534 19.6349 9.41908 19.6349 11.8522C19.6349 14.2854 20.632 16.4992 22.2368 18.1039C23.8416 19.7087 26.0553 20.7059 28.4885 20.7059H45.731H55.191L55.1819 20.6981L55.1754 20.6929L55.0923 20.6267L55.0768 20.615L55.0754 20.6137C55.0053 20.5579 54.9365 20.5008 54.869 20.4423L54.8625 20.4371L54.7664 20.354L54.7651 20.3527C54.7002 20.2969 54.6366 20.2398 54.5743 20.1827L54.5639 20.1736L54.4639 20.0814L54.3705 19.9931L54.3653 19.9879L54.3549 19.9775C54.2938 19.9191 54.2328 19.8594 54.1718 19.7983L54.077 19.7023L53.9835 19.6049L53.8913 19.5062L53.7991 19.4062L53.7083 19.3062C53.6486 19.2387 53.5888 19.1712 53.5317 19.1024C53.4732 19.0336 53.4161 18.9635 53.359 18.8934L53.2746 18.7882L53.1915 18.6817L53.1097 18.574C53.0279 18.4649 52.9487 18.3558 52.8721 18.2442L52.7955 18.1325L52.7202 18.0196L52.6462 17.9053C52.5968 17.8287 52.5488 17.7521 52.5021 17.6755L52.432 17.5586L52.3631 17.4418L52.2957 17.3236L52.2294 17.2042L52.1645 17.0847L52.1022 16.964L52.0411 16.8419L51.9814 16.7199L51.923 16.5965L51.8659 16.4719L51.81 16.3472L51.7555 16.2213L51.7023 16.0954L51.6516 15.9681L51.6023 15.8396C51.5698 15.7539 51.5374 15.6682 51.5075 15.5812L51.462 15.4514L51.4179 15.3202L51.3764 15.1891L51.3361 15.0566L51.2971 14.9242L51.2595 14.7905L51.2245 14.6567L51.1907 14.5217L51.1582 14.3867L51.1271 14.2504L51.0985 14.114L51.0713 13.9764L51.0453 13.8388L51.0206 13.6998L50.9985 13.5609L50.9777 13.4207L50.9583 13.2805L50.9414 13.1402L50.9258 12.9987L50.9128 12.8572L50.9012 12.7157L50.8908 12.5728L50.883 12.43L50.8765 12.2859L50.8713 12.1418L50.8687 11.9977L50.8674 11.8522C50.8674 8.75691 52.1333 5.94202 54.1718 3.90356C54.4938 3.58156 54.8339 3.28034 55.1923 2.99859H55.191ZM62.1192 10.6525H112.944V2.99859H62.1192C59.686 2.99859 57.4723 3.99575 55.8675 5.60054C54.2627 7.20534 53.2655 9.41908 53.2655 11.8522L53.2668 11.9665L53.2694 12.0795L53.2733 12.1924L53.2785 12.3054L53.285 12.4183L53.2928 12.53L53.3019 12.6417L53.3122 12.7533L53.324 12.8637L53.3369 12.974L53.3512 13.0844L53.3681 13.1948L53.3849 13.3038L53.4044 13.4129L53.4252 13.522L53.4473 13.6297L53.4707 13.7375L53.4953 13.844L53.5213 13.9504L53.5486 14.0569L53.5771 14.1621L53.607 14.2672L53.6382 14.3724L53.6706 14.4763L53.7031 14.5801L53.7381 14.6827L53.7732 14.7853L53.8095 14.8866L53.8472 14.9878L53.8862 15.0891L53.9264 15.1891L53.968 15.2891L54.0108 15.3877L54.0549 15.4864L54.1004 15.5838L54.1471 15.6812L54.1938 15.7773L54.2419 15.8733L54.2912 15.9681L54.3419 16.0629L54.3938 16.1564L54.447 16.2499L54.5016 16.342L54.5561 16.4342L54.6119 16.5251L54.6691 16.6147L54.7275 16.7043L54.7872 16.7926L54.8482 16.8809L54.9093 16.9679L56.8361 18.9401C56.9217 19.0037 57.0074 19.066 57.0957 19.1271L57.184 19.1868L57.2723 19.2465C57.332 19.2855 57.3918 19.3244 57.4515 19.3621C57.5125 19.3997 57.5722 19.4374 57.6345 19.4737C57.6956 19.5101 57.7579 19.5452 57.8202 19.5802L57.9137 19.6321C57.976 19.6659 58.0397 19.6997 58.1033 19.7321L58.1994 19.7802L58.2955 19.8269L58.3928 19.8736L58.4902 19.9191L58.5889 19.9632L58.6876 20.0061L58.7876 20.0476L58.8875 20.0879L58.9888 20.1268L59.09 20.1645L59.1913 20.2008L59.2939 20.2359L59.3965 20.2709L59.5003 20.3034L59.6042 20.3359L59.7081 20.367L59.8133 20.3969L59.9184 20.4255L60.0249 20.4527L60.1313 20.4787L60.2378 20.5034L60.3456 20.5267L60.4533 20.5488L60.5624 20.5696L60.6715 20.589L60.7805 20.6059L60.8896 20.6228L60.9999 20.6371L61.1103 20.6501L61.2207 20.6618L61.3323 20.6721L61.444 20.6812L61.5557 20.689L61.6687 20.6955L61.7816 20.7007L61.8945 20.7046L62.0075 20.7072L62.1218 20.7085H98.9594H103.774H112.948V13.0545H62.1231V10.6538L62.1192 10.6525ZM45.731 30.7606H96.5561V23.1066H62.1192H45.731C43.2979 23.1066 41.0841 24.1038 39.4793 25.7086C37.8745 27.3134 36.8774 29.5271 36.8774 31.9603L36.8787 32.0745L36.8813 32.1875L36.8851 32.3004L36.8903 32.4134L36.8968 32.5264L36.9046 32.638L36.9137 32.7497L36.9241 32.8613L36.9358 32.9717L36.9488 33.0821L36.963 33.1924L36.9799 33.3028L36.9968 33.4119L37.0163 33.5209L37.0371 33.63L37.0591 33.7377L37.0825 33.8455L37.1071 33.952L37.1331 34.0584L37.1604 34.1649L37.189 34.2701L37.2188 34.3753L37.25 34.4804L37.2824 34.5843L37.3149 34.6882L37.3499 34.7907L37.385 34.8933L37.4214 34.9946L37.4591 35.0959L37.498 35.1971L37.5382 35.2971L37.5798 35.3971L37.6226 35.4958L37.6667 35.5944L37.7122 35.6918L37.7589 35.7892L37.8057 35.8853L37.8537 35.9813L37.9031 36.0761L37.9537 36.1709L38.0057 36.2644L38.0589 36.3579L38.1134 36.4501L38.168 36.5422L38.2238 36.6331L38.2809 36.724L38.3393 36.8136L38.3991 36.9019L38.4601 36.9902L38.5211 37.0772L38.5834 37.1642L38.6471 37.2499L38.712 37.3343L38.7769 37.4187L38.8431 37.5018L38.9106 37.5848L38.9795 37.6666L39.0482 37.7471L39.1184 37.8276L39.1897 37.9068L39.2612 37.9847L39.3339 38.0626L39.4079 38.1393L39.4832 38.2146L39.5585 38.2899L39.6351 38.3639L39.713 38.4366L39.7909 38.508L39.8701 38.5794L39.9506 38.6495L40.0311 38.7183L40.1129 38.7871L40.196 38.8547L40.2791 38.9209L40.3635 38.9858L40.4479 39.0507C40.5336 39.1143 40.6193 39.1767 40.7076 39.2377L40.7959 39.2974L40.8842 39.3571C40.9439 39.3961 41.0036 39.435 41.0633 39.4727C41.1244 39.5103 41.1841 39.548 41.2464 39.5844C41.3074 39.6207 41.3697 39.6558 41.432 39.6908L41.5256 39.7428C41.5879 39.7765 41.6515 39.8103 41.7151 39.8427L41.8112 39.8908L41.9073 39.9375L42.0047 39.9843L42.102 40.0297L42.2007 40.0738L42.2994 40.1167L42.3994 40.1582L42.4993 40.1985L42.6006 40.2374L42.7019 40.2751L42.8031 40.3114L42.9057 40.3465L43.0083 40.3816L43.1121 40.414L43.2161 40.4465L43.3199 40.4776L43.4251 40.5075L43.5303 40.5361L43.6367 40.5633L43.7432 40.5893L43.8497 40.614L43.9574 40.6373L44.0652 40.6594L44.1742 40.6802L44.2833 40.6997L44.3924 40.7165L44.5014 40.7334L44.6118 40.7477L44.7222 40.7607L44.8325 40.7724L44.9442 40.7828L45.0559 40.7918L45.1675 40.7996L45.2805 40.8061L45.3934 40.8113L45.5064 40.8152L45.6193 40.8178L45.7336 40.8191H62.1218H96.5587V33.1652H45.7336V30.7645L45.731 30.7606ZM55.4312 17.6378L55.5013 17.717L55.5727 17.7962L55.6441 17.8741L55.7168 17.952L55.7909 18.0286L55.8662 18.1039L55.9415 18.1793L56.0181 18.2533L56.096 18.326L56.1739 18.3974L56.2531 18.4688L56.3336 18.5389L56.4141 18.6077L56.4959 18.6765L56.579 18.744L56.6621 18.8103L56.7465 18.8752L56.8309 18.9401L55.4312 17.6365V17.6378ZM55.4312 57.8526L55.5013 57.9318L55.5727 58.011L55.6441 58.0889L55.7168 58.1668L55.7909 58.2434L55.8662 58.3187L55.9415 58.394L56.0181 58.468L56.096 58.5407L56.1739 58.6121L56.2531 58.6835L56.3336 58.7536L56.4141 58.8225L56.4959 58.8913L56.579 58.9588L56.6621 59.025L56.7465 59.0899L56.8309 59.1548L55.4312 57.8513V57.8526Z" fill="black"/>
</svg>
